<mxfile host="Electron" modified="2023-12-04T09:54:14.201Z" agent="Mozilla/5.0 (Windows NT 10.0; Win64; x64) AppleWebKit/537.36 (KHTML, like Gecko) draw.io/22.1.2 Chrome/114.0.5735.289 Electron/25.9.4 Safari/537.36" etag="NLzrt8zl5lCoP18VfUOO" version="22.1.2" type="device">
  <diagram name="Страница — 1" id="v5MBaJPVhTYgz5DfGtqb">
    <mxGraphModel dx="775" dy="776" grid="1" gridSize="10" guides="1" tooltips="1" connect="1" arrows="1" fold="1" page="1" pageScale="1" pageWidth="827" pageHeight="1169" math="0" shadow="0">
      <root>
        <mxCell id="0" />
        <mxCell id="1" parent="0" />
        <mxCell id="MvvM5taRQOztK50YrM3w-3" value="" style="edgeStyle=orthogonalEdgeStyle;rounded=0;orthogonalLoop=1;jettySize=auto;html=1;" parent="1" source="MvvM5taRQOztK50YrM3w-1" target="MvvM5taRQOztK50YrM3w-2" edge="1">
          <mxGeometry relative="1" as="geometry" />
        </mxCell>
        <mxCell id="MvvM5taRQOztK50YrM3w-1" value="Початок&amp;nbsp;" style="ellipse;whiteSpace=wrap;html=1;" parent="1" vertex="1">
          <mxGeometry x="210" y="280" width="120" height="80" as="geometry" />
        </mxCell>
        <mxCell id="MvvM5taRQOztK50YrM3w-5" value="" style="edgeStyle=orthogonalEdgeStyle;rounded=0;orthogonalLoop=1;jettySize=auto;html=1;" parent="1" source="MvvM5taRQOztK50YrM3w-2" target="MvvM5taRQOztK50YrM3w-4" edge="1">
          <mxGeometry relative="1" as="geometry" />
        </mxCell>
        <mxCell id="MvvM5taRQOztK50YrM3w-2" value="int resultat = 0" style="whiteSpace=wrap;html=1;" parent="1" vertex="1">
          <mxGeometry x="210" y="450" width="120" height="60" as="geometry" />
        </mxCell>
        <mxCell id="MvvM5taRQOztK50YrM3w-7" value="" style="edgeStyle=orthogonalEdgeStyle;rounded=0;orthogonalLoop=1;jettySize=auto;html=1;" parent="1" source="MvvM5taRQOztK50YrM3w-4" target="MvvM5taRQOztK50YrM3w-6" edge="1">
          <mxGeometry relative="1" as="geometry" />
        </mxCell>
        <mxCell id="MvvM5taRQOztK50YrM3w-4" value="va_list args" style="whiteSpace=wrap;html=1;" parent="1" vertex="1">
          <mxGeometry x="210" y="590" width="120" height="60" as="geometry" />
        </mxCell>
        <mxCell id="MvvM5taRQOztK50YrM3w-9" value="" style="edgeStyle=orthogonalEdgeStyle;rounded=0;orthogonalLoop=1;jettySize=auto;html=1;entryX=0.5;entryY=0;entryDx=0;entryDy=0;" parent="1" source="MvvM5taRQOztK50YrM3w-6" target="MvvM5taRQOztK50YrM3w-8" edge="1">
          <mxGeometry relative="1" as="geometry">
            <mxPoint x="270" y="870" as="targetPoint" />
          </mxGeometry>
        </mxCell>
        <mxCell id="MvvM5taRQOztK50YrM3w-6" value="va_start(args, count)" style="whiteSpace=wrap;html=1;" parent="1" vertex="1">
          <mxGeometry x="210" y="730" width="120" height="60" as="geometry" />
        </mxCell>
        <mxCell id="J1bTOTGok3e2cb-_7d6a-1" value="" style="edgeStyle=orthogonalEdgeStyle;rounded=0;orthogonalLoop=1;jettySize=auto;html=1;entryX=0.5;entryY=0;entryDx=0;entryDy=0;" parent="1" source="MvvM5taRQOztK50YrM3w-8" target="J1bTOTGok3e2cb-_7d6a-2" edge="1">
          <mxGeometry relative="1" as="geometry">
            <mxPoint x="270" y="1010" as="targetPoint" />
          </mxGeometry>
        </mxCell>
        <mxCell id="MvvM5taRQOztK50YrM3w-8" value="" style="verticalLabelPosition=bottom;verticalAlign=top;html=1;shape=hexagon;perimeter=hexagonPerimeter2;arcSize=6;size=0.27;" parent="1" vertex="1">
          <mxGeometry x="220" y="830" width="100" height="60" as="geometry" />
        </mxCell>
        <mxCell id="MvvM5taRQOztK50YrM3w-13" value="" style="edgeStyle=orthogonalEdgeStyle;rounded=0;orthogonalLoop=1;jettySize=auto;html=1;" parent="1" source="MvvM5taRQOztK50YrM3w-10" target="MvvM5taRQOztK50YrM3w-12" edge="1">
          <mxGeometry relative="1" as="geometry" />
        </mxCell>
        <mxCell id="MvvM5taRQOztK50YrM3w-20" value="True" style="edgeLabel;html=1;align=center;verticalAlign=middle;resizable=0;points=[];" parent="MvvM5taRQOztK50YrM3w-13" vertex="1" connectable="0">
          <mxGeometry x="-0.668" y="2" relative="1" as="geometry">
            <mxPoint as="offset" />
          </mxGeometry>
        </mxCell>
        <mxCell id="MvvM5taRQOztK50YrM3w-10" value="potochne &amp;gt; nastupne" style="strokeWidth=2;html=1;shape=mxgraph.flowchart.decision;whiteSpace=wrap;" parent="1" vertex="1">
          <mxGeometry x="190" y="1200" width="160" height="100" as="geometry" />
        </mxCell>
        <mxCell id="MvvM5taRQOztK50YrM3w-15" value="" style="edgeStyle=orthogonalEdgeStyle;rounded=0;orthogonalLoop=1;jettySize=auto;html=1;" parent="1" source="MvvM5taRQOztK50YrM3w-12" target="MvvM5taRQOztK50YrM3w-14" edge="1">
          <mxGeometry relative="1" as="geometry" />
        </mxCell>
        <mxCell id="MvvM5taRQOztK50YrM3w-12" value="resultat++" style="whiteSpace=wrap;html=1;strokeWidth=2;" parent="1" vertex="1">
          <mxGeometry x="210" y="1340" width="120" height="60" as="geometry" />
        </mxCell>
        <mxCell id="MvvM5taRQOztK50YrM3w-22" value="" style="edgeStyle=orthogonalEdgeStyle;rounded=0;orthogonalLoop=1;jettySize=auto;html=1;" parent="1" source="MvvM5taRQOztK50YrM3w-14" target="MvvM5taRQOztK50YrM3w-21" edge="1">
          <mxGeometry relative="1" as="geometry" />
        </mxCell>
        <mxCell id="MvvM5taRQOztK50YrM3w-14" value="va_end(args)" style="whiteSpace=wrap;html=1;strokeWidth=2;" parent="1" vertex="1">
          <mxGeometry x="210" y="1430" width="120" height="60" as="geometry" />
        </mxCell>
        <mxCell id="MvvM5taRQOztK50YrM3w-16" value="i &amp;lt; count - 1" style="text;html=1;align=center;verticalAlign=middle;resizable=0;points=[];autosize=1;strokeColor=none;fillColor=none;" parent="1" vertex="1">
          <mxGeometry x="225" y="845" width="90" height="30" as="geometry" />
        </mxCell>
        <mxCell id="MvvM5taRQOztK50YrM3w-17" value="" style="endArrow=classic;html=1;rounded=0;exitX=0;exitY=0.5;exitDx=0;exitDy=0;exitPerimeter=0;entryX=-0.009;entryY=0.535;entryDx=0;entryDy=0;entryPerimeter=0;" parent="1" source="MvvM5taRQOztK50YrM3w-10" target="MvvM5taRQOztK50YrM3w-16" edge="1">
          <mxGeometry width="50" height="50" relative="1" as="geometry">
            <mxPoint x="160" y="1130" as="sourcePoint" />
            <mxPoint x="210" y="1080" as="targetPoint" />
            <Array as="points">
              <mxPoint x="190" y="861" />
            </Array>
          </mxGeometry>
        </mxCell>
        <mxCell id="MvvM5taRQOztK50YrM3w-18" value="False" style="edgeLabel;html=1;align=center;verticalAlign=middle;resizable=0;points=[];" parent="MvvM5taRQOztK50YrM3w-17" vertex="1" connectable="0">
          <mxGeometry x="0.1817" y="-1" relative="1" as="geometry">
            <mxPoint as="offset" />
          </mxGeometry>
        </mxCell>
        <mxCell id="CXyZ3nrqauTTjUWcUu_5-2" value="" style="edgeStyle=orthogonalEdgeStyle;rounded=0;orthogonalLoop=1;jettySize=auto;html=1;" edge="1" parent="1" source="MvvM5taRQOztK50YrM3w-21" target="CXyZ3nrqauTTjUWcUu_5-1">
          <mxGeometry relative="1" as="geometry" />
        </mxCell>
        <mxCell id="MvvM5taRQOztK50YrM3w-21" value="return resultat" style="whiteSpace=wrap;html=1;strokeWidth=2;" parent="1" vertex="1">
          <mxGeometry x="210" y="1540" width="120" height="60" as="geometry" />
        </mxCell>
        <mxCell id="MvvM5taRQOztK50YrM3w-23" value="" style="strokeWidth=2;html=1;shape=mxgraph.flowchart.annotation_2;align=left;labelPosition=right;pointerEvents=1;" parent="1" vertex="1">
          <mxGeometry x="540" y="710" width="50" height="100" as="geometry" />
        </mxCell>
        <mxCell id="MvvM5taRQOztK50YrM3w-25" value="" style="strokeWidth=2;html=1;shape=mxgraph.flowchart.annotation_2;align=left;labelPosition=right;pointerEvents=1;" parent="1" vertex="1">
          <mxGeometry x="490" y="810" width="50" height="100" as="geometry" />
        </mxCell>
        <mxCell id="MvvM5taRQOztK50YrM3w-26" value="" style="strokeWidth=2;html=1;shape=mxgraph.flowchart.annotation_2;align=left;labelPosition=right;pointerEvents=1;" parent="1" vertex="1">
          <mxGeometry x="560" y="940" width="50" height="100" as="geometry" />
        </mxCell>
        <mxCell id="MvvM5taRQOztK50YrM3w-27" value="Функція va_start ініціалізує змінну args та&lt;br&gt;&amp;nbsp;встановлює її &lt;br&gt;на початок списку аргументів." style="text;html=1;align=center;verticalAlign=middle;resizable=0;points=[];autosize=1;strokeColor=none;fillColor=none;" parent="1" vertex="1">
          <mxGeometry x="580" y="740" width="250" height="60" as="geometry" />
        </mxCell>
        <mxCell id="MvvM5taRQOztK50YrM3w-28" value="" style="endArrow=none;dashed=1;html=1;dashPattern=1 3;strokeWidth=2;rounded=0;exitX=1;exitY=0.5;exitDx=0;exitDy=0;entryX=0.2;entryY=0.5;entryDx=0;entryDy=0;entryPerimeter=0;" parent="1" source="MvvM5taRQOztK50YrM3w-6" target="MvvM5taRQOztK50YrM3w-23" edge="1">
          <mxGeometry width="50" height="50" relative="1" as="geometry">
            <mxPoint x="510" y="790" as="sourcePoint" />
            <mxPoint x="490" y="750" as="targetPoint" />
          </mxGeometry>
        </mxCell>
        <mxCell id="MvvM5taRQOztK50YrM3w-29" value="Цикл, який перебирає пари &lt;br&gt;аргументів у змінному списку&amp;nbsp;" style="text;html=1;align=center;verticalAlign=middle;resizable=0;points=[];autosize=1;strokeColor=none;fillColor=none;" parent="1" vertex="1">
          <mxGeometry x="500" y="835" width="190" height="40" as="geometry" />
        </mxCell>
        <mxCell id="MvvM5taRQOztK50YrM3w-30" value="" style="endArrow=none;dashed=1;html=1;dashPattern=1 3;strokeWidth=2;rounded=0;exitX=1;exitY=0.5;exitDx=0;exitDy=0;entryX=0.2;entryY=0.5;entryDx=0;entryDy=0;entryPerimeter=0;" parent="1" edge="1">
          <mxGeometry width="50" height="50" relative="1" as="geometry">
            <mxPoint x="320" y="860" as="sourcePoint" />
            <mxPoint x="490" y="860" as="targetPoint" />
          </mxGeometry>
        </mxCell>
        <mxCell id="MvvM5taRQOztK50YrM3w-36" value="" style="edgeStyle=orthogonalEdgeStyle;rounded=0;orthogonalLoop=1;jettySize=auto;html=1;" parent="1" source="MvvM5taRQOztK50YrM3w-32" target="MvvM5taRQOztK50YrM3w-35" edge="1">
          <mxGeometry relative="1" as="geometry" />
        </mxCell>
        <mxCell id="MvvM5taRQOztK50YrM3w-32" value="int potochne = va_arg(args, int)" style="whiteSpace=wrap;html=1;" parent="1" vertex="1">
          <mxGeometry x="210" y="1010" width="120" height="60" as="geometry" />
        </mxCell>
        <mxCell id="MvvM5taRQOztK50YrM3w-37" value="" style="edgeStyle=orthogonalEdgeStyle;rounded=0;orthogonalLoop=1;jettySize=auto;html=1;" parent="1" source="MvvM5taRQOztK50YrM3w-35" target="MvvM5taRQOztK50YrM3w-10" edge="1">
          <mxGeometry relative="1" as="geometry" />
        </mxCell>
        <mxCell id="MvvM5taRQOztK50YrM3w-35" value="int nastupne = va_arg(args, int)" style="whiteSpace=wrap;html=1;" parent="1" vertex="1">
          <mxGeometry x="210" y="1110" width="120" height="60" as="geometry" />
        </mxCell>
        <mxCell id="MvvM5taRQOztK50YrM3w-38" value="Отримання наступного аргумента зі списку та&lt;br&gt;&amp;nbsp;збереження його в potochne." style="text;html=1;align=center;verticalAlign=middle;resizable=0;points=[];autosize=1;strokeColor=none;fillColor=none;" parent="1" vertex="1">
          <mxGeometry x="580" y="975" width="280" height="40" as="geometry" />
        </mxCell>
        <mxCell id="MvvM5taRQOztK50YrM3w-39" value="" style="endArrow=none;dashed=1;html=1;dashPattern=1 3;strokeWidth=2;rounded=0;exitX=1;exitY=0.5;exitDx=0;exitDy=0;" parent="1" edge="1">
          <mxGeometry width="50" height="50" relative="1" as="geometry">
            <mxPoint x="325" y="990.0000000000002" as="sourcePoint" />
            <mxPoint x="560" y="990" as="targetPoint" />
            <Array as="points" />
          </mxGeometry>
        </mxCell>
        <mxCell id="MvvM5taRQOztK50YrM3w-40" value="" style="strokeWidth=2;html=1;shape=mxgraph.flowchart.annotation_2;align=left;labelPosition=right;pointerEvents=1;" parent="1" vertex="1">
          <mxGeometry x="480" y="1040" width="50" height="100" as="geometry" />
        </mxCell>
        <mxCell id="MvvM5taRQOztK50YrM3w-41" value="Отримання ще одного наступного&lt;br&gt;&amp;nbsp;аргумента та збереження його в nastupne." style="text;html=1;align=center;verticalAlign=middle;resizable=0;points=[];autosize=1;strokeColor=none;fillColor=none;" parent="1" vertex="1">
          <mxGeometry x="500" y="1070" width="260" height="40" as="geometry" />
        </mxCell>
        <mxCell id="MvvM5taRQOztK50YrM3w-43" value="" style="endArrow=none;dashed=1;html=1;dashPattern=1 3;strokeWidth=2;rounded=0;exitX=1;exitY=0.5;exitDx=0;exitDy=0;" parent="1" edge="1">
          <mxGeometry width="50" height="50" relative="1" as="geometry">
            <mxPoint x="325" y="1089.5700000000002" as="sourcePoint" />
            <mxPoint x="480" y="1090" as="targetPoint" />
            <Array as="points" />
          </mxGeometry>
        </mxCell>
        <mxCell id="MvvM5taRQOztK50YrM3w-44" value="Порівняння поточного&lt;br&gt;&amp;nbsp;та наступного аргументів; якщо&lt;br&gt;&amp;nbsp;поточний більший за&lt;br&gt;&amp;nbsp;наступний, збільшується resultat." style="text;html=1;align=center;verticalAlign=middle;resizable=0;points=[];autosize=1;strokeColor=none;fillColor=none;" parent="1" vertex="1">
          <mxGeometry x="525" y="1215" width="210" height="70" as="geometry" />
        </mxCell>
        <mxCell id="MvvM5taRQOztK50YrM3w-45" value="" style="strokeWidth=2;html=1;shape=mxgraph.flowchart.annotation_2;align=left;labelPosition=right;pointerEvents=1;" parent="1" vertex="1">
          <mxGeometry x="490" y="1200" width="50" height="100" as="geometry" />
        </mxCell>
        <mxCell id="MvvM5taRQOztK50YrM3w-46" value="" style="endArrow=none;dashed=1;html=1;dashPattern=1 3;strokeWidth=2;rounded=0;exitX=1;exitY=0.5;exitDx=0;exitDy=0;exitPerimeter=0;entryX=0;entryY=0.5;entryDx=0;entryDy=0;entryPerimeter=0;" parent="1" source="MvvM5taRQOztK50YrM3w-10" target="MvvM5taRQOztK50YrM3w-45" edge="1">
          <mxGeometry width="50" height="50" relative="1" as="geometry">
            <mxPoint x="350" y="1220" as="sourcePoint" />
            <mxPoint x="480" y="1219" as="targetPoint" />
            <Array as="points" />
          </mxGeometry>
        </mxCell>
        <mxCell id="MvvM5taRQOztK50YrM3w-47" value="Функція va_end завершує обробку&lt;br&gt;&amp;nbsp;змінного списку аргументів." style="text;html=1;align=center;verticalAlign=middle;resizable=0;points=[];autosize=1;strokeColor=none;fillColor=none;" parent="1" vertex="1">
          <mxGeometry x="430" y="1320" width="210" height="40" as="geometry" />
        </mxCell>
        <mxCell id="MvvM5taRQOztK50YrM3w-48" value="" style="strokeWidth=2;html=1;shape=mxgraph.flowchart.annotation_2;align=left;labelPosition=right;pointerEvents=1;" parent="1" vertex="1">
          <mxGeometry x="389" y="1290" width="50" height="100" as="geometry" />
        </mxCell>
        <mxCell id="MvvM5taRQOztK50YrM3w-49" value="" style="endArrow=none;dashed=1;html=1;dashPattern=1 3;strokeWidth=2;rounded=0;exitX=1;exitY=0.5;exitDx=0;exitDy=0;exitPerimeter=0;entryX=0;entryY=0.5;entryDx=0;entryDy=0;entryPerimeter=0;" parent="1" edge="1">
          <mxGeometry width="50" height="50" relative="1" as="geometry">
            <mxPoint x="320" y="1339.57" as="sourcePoint" />
            <mxPoint x="389" y="1339.57" as="targetPoint" />
            <Array as="points" />
          </mxGeometry>
        </mxCell>
        <mxCell id="J1bTOTGok3e2cb-_7d6a-3" value="" style="edgeStyle=orthogonalEdgeStyle;rounded=0;orthogonalLoop=1;jettySize=auto;html=1;" parent="1" source="J1bTOTGok3e2cb-_7d6a-2" target="MvvM5taRQOztK50YrM3w-32" edge="1">
          <mxGeometry relative="1" as="geometry" />
        </mxCell>
        <mxCell id="J1bTOTGok3e2cb-_7d6a-2" value="i++" style="rounded=0;whiteSpace=wrap;html=1;" parent="1" vertex="1">
          <mxGeometry x="210" y="930" width="120" height="60" as="geometry" />
        </mxCell>
        <mxCell id="CXyZ3nrqauTTjUWcUu_5-1" value="Кінець" style="ellipse;whiteSpace=wrap;html=1;" vertex="1" parent="1">
          <mxGeometry x="210" y="1640" width="120" height="80" as="geometry" />
        </mxCell>
      </root>
    </mxGraphModel>
  </diagram>
</mxfile>
